<svg width="15" height="16" viewBox="0 0 15 16" fill="none" xmlns="http://www.w3.org/2000/svg">
<path d="M2 16V15H3V16H2ZM9 4.00001C10.5913 4.00001 12.1174 4.63215 13.2426 5.75737C14.3679 6.88259 15 8.40871 15 10C15 11.5913 14.3679 13.1174 13.2426 14.2427C12.1174 15.3679 10.5913 16 9 16H5V15H9C10.3261 15 11.5979 14.4732 12.5355 13.5355C13.4732 12.5979 14 11.3261 14 10C14 8.67393 13.4732 7.40216 12.5355 6.46448C11.5979 5.52679 10.3261 5.00001 9 5.00001H1.91L4.95 8.04001L4.24 8.74001L0 4.50001L4.24 0.26001L4.95 0.96001L1.91 4.00001H9Z" fill="black"/>
</svg>
